<?xml version="1.0" standalone="no"?>
<!DOCTYPE svg PUBLIC "-//W3C//DTD SVG 20010904//EN"
 "http://www.w3.org/TR/2001/REC-SVG-20010904/DTD/svg10.dtd">
<svg version="1.0" xmlns="http://www.w3.org/2000/svg"
 width="238.000000pt" height="238.000000pt" viewBox="0 0 238.000000 238.000000"
 preserveAspectRatio="xMidYMid meet">
<metadata>
Created by potrace 1.14, written by Peter Selinger 2001-2017
</metadata>
<g transform="translate(0.000000,238.000000) scale(0.100000,-0.100000)"
fill="#000000" stroke="none">
<path d="M1020 2340 l0 -40 -80 0 -80 0 0 -42 0 -43 -80 3 -80 4 0 -41 0 -41
-40 0 -40 0 0 -40 0 -40 -45 0 -45 0 0 -45 0 -45 -40 0 -40 0 0 -40 c0 -39 -1
-40 -37 -41 -21 0 -59 0 -85 1 l-48 1 0 -85 0 -86 -40 0 -40 0 0 -80 0 -80
-40 0 -40 0 0 -120 0 -120 -40 0 -40 0 0 -210 0 -210 40 0 40 0 0 -120 0 -120
40 0 40 0 0 -85 0 -85 40 0 40 0 0 -40 0 -40 40 0 40 0 0 -45 0 -45 45 0 45 0
0 -40 0 -40 40 0 40 0 0 -40 0 -40 85 0 85 0 0 -40 0 -40 80 0 80 0 0 -40 0
-40 330 0 330 0 0 40 0 40 80 0 80 0 0 40 0 40 85 0 85 0 0 40 0 40 40 0 40 0
0 40 0 40 45 0 45 0 0 45 0 45 40 0 40 0 0 40 0 40 40 0 40 0 0 85 0 85 40 0
40 0 0 120 0 120 40 0 40 0 0 210 0 210 -40 0 -40 0 0 120 0 120 -40 0 -40 0
0 80 0 80 -40 0 -40 0 0 86 0 85 -47 -1 c-27 -1 -65 -1 -85 -1 -37 1 -38 2
-38 41 l0 40 -40 0 -40 0 0 45 0 45 -40 0 -40 0 0 40 0 40 -45 0 -45 0 0 41 0
41 -80 -4 -80 -3 0 43 0 42 -80 0 -80 0 0 40 0 40 -170 0 -170 0 0 -40z m332
-82 l3 -43 77 -3 77 -3 3 -37 c3 -36 4 -37 48 -40 46 -3 46 -3 42 -36 l-4 -34
86 -7 86 -7 0 -44 0 -44 40 0 c39 0 40 -1 40 -35 0 -34 1 -35 40 -35 l40 0 0
-40 0 -40 40 0 40 0 0 -45 0 -45 40 0 40 0 0 -80 0 -80 40 0 40 0 0 -125 0
-125 45 0 45 0 0 -165 0 -166 -82 3 -83 3 -3 83 -3 82 -39 0 c-40 0 -40 0 -40
40 l0 40 -40 0 -40 0 0 40 0 40 -40 0 -40 0 0 -40 0 -40 -85 0 -85 0 0 -85 0
-85 -40 0 -40 0 0 -200 0 -200 40 0 40 0 0 -45 0 -45 -120 0 -120 0 0 -40 0
-40 -250 0 -250 0 0 40 0 40 -160 0 -160 0 0 45 0 45 -167 0 -168 0 0 37 c0
37 -1 38 -38 38 l-37 0 0 70 c0 39 -3 94 -6 122 l-7 53 -38 0 -39 0 0 85 0 85
85 0 85 0 0 -40 0 -40 120 0 120 0 0 40 0 40 85 0 85 0 0 85 0 85 40 0 40 0 0
75 0 75 -40 0 -40 0 0 45 0 45 -40 0 -40 0 0 40 0 40 -85 0 -85 0 0 40 0 40
-40 0 -40 0 0 45 0 45 40 0 40 0 0 40 0 40 40 0 c39 0 40 1 40 35 0 35 0 35
45 35 l45 0 0 44 0 44 81 7 81 7 -4 34 c-4 33 -4 33 42 36 44 3 45 4 48 40 l3
37 77 3 77 3 3 43 3 42 159 0 159 0 3 -42z"/>
<path d="M1270 1430 l0 -40 -40 0 -40 0 0 -80 0 -80 40 0 40 0 0 -40 0 -40 80
0 80 0 0 40 0 40 40 0 40 0 0 85 0 85 -35 0 c-33 0 -35 2 -35 35 l0 35 -85 0
-85 0 0 -40z"/>
</g>
</svg>
